<?xml version="1.0" encoding="utf-8"?>
<!-- Generator: Adobe Illustrator 25.0.0, SVG Export Plug-In . SVG Version: 6.00 Build 0)  -->
<svg version="1.1" xmlns="http://www.w3.org/2000/svg" xmlns:xlink="http://www.w3.org/1999/xlink" x="0px" y="0px"
	 viewBox="0 0 8503.94 8503.94" style="enable-background:new 0 0 8503.94 8503.94;" xml:space="preserve">
<style type="text/css">
	.st0{fill:#1D5D6C;}
	.st1{fill:#27348B;}
	.st2{opacity:0.44;fill:#27348B;}
	.st3{fill:#0095CB;}
	.st4{fill:#00AE00;}
</style>
<g id="Слой_1">
</g>
<g id="Слой_2">
	<g>
		<path class="st0" d="M5922.69,3292.42c-675.5,0-1223.11,547.61-1223.11,1223.11c0,675.51,547.61,1223.11,1223.11,1223.11
			c675.51,0,1223.11-547.6,1223.11-1223.11C7145.81,3840.03,6598.21,3292.42,5922.69,3292.42z M5922.69,5596.42
			c-596.96,0-1080.89-483.93-1080.89-1080.89s483.93-1080.89,1080.89-1080.89s1080.89,483.93,1080.89,1080.89
			S6519.66,5596.42,5922.69,5596.42z"/>
		<path class="st0" d="M5922.33,3565.82c-524.3,0-949.33,425.03-949.33,949.33c0,524.31,425.03,949.34,949.33,949.34
			s949.34-425.03,949.34-949.34C6871.67,3990.85,6446.63,3565.82,5922.33,3565.82z M6709.75,4236.29c8.66,0,15.69,7.02,15.69,15.69
			v44.62c0,8.67-7.03,15.69-15.69,15.69h-453.51c-8.66,0-15.69-7.02-15.69-15.69v-44.62c0-8.67,7.03-15.69,15.69-15.69H6709.75z
			 M6529.44,4008.25v44.62c0,8.67-7.03,15.69-15.69,15.69h-373.51c-8.66,0-15.69-7.02-15.69-15.69v-44.62
			c0-8.67,7.03-15.69,15.69-15.69h373.51C6522.41,3992.55,6529.44,3999.57,6529.44,4008.25z M6056,3764.5
			c0-8.65,7.01-15.67,15.67-15.67h133.9c1.89,0,3.78,0.34,5.55,1.01c34.38,12.98,67.66,28.21,99.65,45.51
			c14.32,7.75,8.86,29.48-7.43,29.48h-231.67c-8.66,0-15.67-7.02-15.67-15.67V3764.5z M5533.89,3795.34
			c31.99-17.3,65.26-32.53,99.64-45.51c1.78-0.67,3.66-1.01,5.55-1.01h157.35c8.66,0,15.68,7.02,15.68,15.67v44.66
			c0,8.65-7.02,15.67-15.68,15.67h-255.11C5525.03,3824.82,5519.57,3803.09,5533.89,3795.34z M5300.99,4008.25
			c0-8.67,7.03-15.69,15.7-15.69h380.17c8.67,0,15.69,7.02,15.69,15.69v44.62c0,8.66-7.02,15.69-15.69,15.69h-380.17
			c-8.67,0-15.7-7.03-15.7-15.69V4008.25z M5137.44,4251.98c0-8.67,7.02-15.69,15.69-15.69h456.62c8.66,0,15.69,7.02,15.69,15.69
			v44.62c0,8.67-7.03,15.69-15.69,15.69h-456.62c-8.67,0-15.69-7.02-15.69-15.69V4251.98z M5038.77,4540.33v-44.62
			c0-8.67,7.03-15.69,15.69-15.69h484.18c8.66,0,15.69,7.02,15.69,15.69v44.62c0,8.67-7.03,15.69-15.69,15.69h-484.18
			C5045.8,4556.02,5038.77,4549,5038.77,4540.33z M5139.8,4799.75c-8.67,0-15.69-7.02-15.69-15.69v-44.62
			c0-8.67,7.02-15.69,15.69-15.69h407.73c8.66,0,15.69,7.02,15.69,15.69v44.62c0,8.67-7.03,15.69-15.69,15.69H5139.8z
			 M5296.55,5027.79v-44.62c0-8.66,7.03-15.69,15.69-15.69h377.51c8.66,0,15.69,7.03,15.69,15.69v44.62
			c0,8.67-7.03,15.69-15.69,15.69h-377.51C5303.58,5043.48,5296.55,5036.46,5296.55,5027.79z M5810.33,5271.62
			c0,8.61-6.98,15.59-15.59,15.59h-140.05c-1.78,0-3.54-0.3-5.22-0.89c-36.21-12.82-71.25-28.11-104.92-45.68
			c-14.47-7.55-9.16-29.43,7.17-29.43h243.02c8.61,0,15.59,6.98,15.59,15.59V5271.62z M5733.49,4847.78
			c-57.85-33.8-126.81-102.07-126.81-235.33c0-55.92,13.04-107.49,39.85-157.64c0,0,276.17-370.36,276.17-457.75
			c0,87.39,276.17,457.75,276.17,457.75c26.82,50.15,39.85,101.72,39.85,157.64c0,133.26-68.95,201.53-126.8,235.33
			c-73.16,42.75-156.7,47.36-189.22,47.36S5806.65,4890.53,5733.49,4847.78z M6299.69,5240.86
			c-33.54,17.48-68.43,32.69-104.49,45.45c-1.69,0.6-3.47,0.9-5.26,0.9h-121.69c-8.67,0-15.7-7.03-15.7-15.7v-44.6
			c0-8.67,7.03-15.7,15.7-15.7h224.22C6308.92,5211.21,6314.27,5233.26,6299.69,5240.86z M6521.44,5027.79
			c0,8.67-7.03,15.69-15.69,15.69h-375.73c-8.67,0-15.69-7.02-15.69-15.69v-44.62c0-8.66,7.02-15.69,15.69-15.69h375.73
			c8.66,0,15.69,7.03,15.69,15.69V5027.79z M6709.44,4784.06c0,8.67-7.03,15.69-15.69,15.69h-362.4c-8.66,0-15.69-7.02-15.69-15.69
			v-44.62c0-8.67,7.03-15.69,15.69-15.69h362.4c8.66,0,15.69,7.02,15.69,15.69V4784.06z M6797.75,4556.02h-443.18
			c-8.66,0-15.69-7.02-15.69-15.69v-44.62c0-8.67,7.03-15.69,15.69-15.69h443.18c8.66,0,15.69,7.02,15.69,15.69v44.62
			C6813.44,4549,6806.41,4556.02,6797.75,4556.02z M6193.37,4612.45c0-206.66-200-261.33-270.67-528
			c-70.66,266.67-270.66,321.34-270.66,528c0,206.67,188,237.34,270.66,237.34C6005.37,4849.79,6193.37,4819.12,6193.37,4612.45z"/>
		<path class="st1" d="M5922.7,3997.05"/>
		<path class="st2" d="M6193.37,4612.45c0,206.67-188,237.34-270.67,237.34c-82.66,0-270.66-30.67-270.66-237.34
			c0-206.66,200-261.33,270.66-528C5993.37,4351.12,6193.37,4405.79,6193.37,4612.45z"/>
		<path class="st3" d="M6193.37,4612.45c0,206.67-188,237.34-270.67,237.34c-82.66,0-270.66-30.67-270.66-237.34
			c0-206.66,200-261.33,270.66-528C5993.37,4351.12,6193.37,4405.79,6193.37,4612.45z"/>
		<path class="st4" d="M7515.58,4582.02c0-243.04,171.94-445.91,400.82-493.61c31.79-6.63,51.86-38.13,44.2-69.68
			c-40.73-167.67-101.61-327.45-179.94-476.64c-15.07-28.7-50.95-39.16-79.12-23.1c-73.52,41.91-158.61,65.84-249.29,65.84
			c-278.48,0-504.23-225.75-504.23-504.22c0-102.15,30.37-197.2,82.59-276.62c17.84-27.13,9.63-63.59-18.09-80.49
			c-155.34-94.68-323.95-169.72-502.41-221.69c-31.36-9.13-64.16,9.61-71.78,41.38c-53.16,221.51-252.51,386.13-490.31,386.13
			c-241.87,0-443.97-170.3-492.92-397.55c-6.91-32.06-38.98-52.01-70.69-43.62c-173.39,45.92-337.98,113.48-490.68,199.64
			c-21.97,12.4-33.19,37.76-27.68,62.38l135.58,606.03c9.06,40.51,56.76,58.12,90.14,33.45
			c232.36-171.77,519.78-273.32,830.91-273.32c772.77,0,1399.22,626.46,1399.22,1399.22c0,772.77-626.45,1399.22-1399.22,1399.22
			c-274.24,0-530.06-78.89-745.99-215.24c-29.45-18.59-68.53-6.78-82.81,24.99l-240.83,535.94c-12.07,26.86-1.79,58.47,23.72,73.18
			c137.5,79.28,284.84,143.4,439.74,190.09c30.91,9.32,63.48-8.88,71.72-40.09c57-215.96,253.69-375.18,487.56-375.18
			c241.55,0,443.43,169.85,492.71,396.63c6.91,31.77,38.6,51.62,70.12,43.64c167.44-42.35,326.85-104.84,475.51-184.76
			c28.56-15.35,38.72-51.37,22.33-79.34c-43.79-74.72-68.89-161.71-68.89-254.57c0-278.48,225.74-504.22,504.22-504.22
			c100.71,0,194.53,29.52,273.27,80.39c27.26,17.61,63.74,9.3,80.36-18.58c83.09-139.42,150.47-289.29,199.68-447.17
			c9.62-30.87-8.21-63.65-39.39-72.22C7672.33,5009.5,7515.58,4814.07,7515.58,4582.02z"/>
		<g>
			<g>
				<path class="st3" d="M1255.8,3865.03H802.2v-627.12h453.6v121.3H963.08v108.24h271.65v121.3H963.08v154.99h292.71V3865.03z"/>
				<path class="st3" d="M1843.75,3865.03h-452.33v-627.12h161.73v505.82h290.61V3865.03z"/>
				<path class="st3" d="M2550.89,3551.68c0,99.96-28.64,179.35-85.92,238.17c-57.28,58.83-136.46,88.24-237.54,88.24
					c-100.8,0-179.84-29.41-237.12-88.24c-57.28-58.82-85.92-138.21-85.92-238.17c0-100.8,28.64-180.47,85.92-239.01
					c57.28-58.54,136.31-87.81,237.12-87.81c100.51,0,179.56,29.27,237.12,87.81C2522.11,3371.21,2550.89,3450.88,2550.89,3551.68z
					 M2336.51,3710.46c15.72-19.09,27.38-41.62,34.96-67.6c7.58-25.97,11.37-56.5,11.37-91.6c0-37.62-4.36-69.63-13.06-96.03
					c-8.71-26.39-20.08-47.73-34.12-64.02c-14.32-16.85-30.82-29.06-49.49-36.64c-18.68-7.58-38.11-11.37-58.33-11.37
					c-20.5,0-39.8,3.65-57.91,10.95c-18.11,7.3-34.75,19.38-49.91,36.22c-14.04,15.73-25.48,37.42-34.33,65.07
					c-8.85,27.66-13.27,59.74-13.27,96.24c0,37.35,4.28,69.14,12.84,95.39c8.56,26.26,19.86,47.66,33.91,64.23
					c14.04,16.57,30.46,28.79,49.28,36.64c18.81,7.86,38.6,11.79,59.38,11.79c20.78,0,40.57-4,59.38-12
					C2306.05,3739.73,2322.47,3727.31,2336.51,3710.46z"/>
				<path class="st3" d="M3278.25,3865.03h-197.53l-170.61-229.96h-74.93v229.96h-160.89v-627.12h271.23
					c37.06,0,68.93,2.11,95.6,6.32c26.67,4.21,51.66,13.34,74.97,27.38c23.59,14.04,42.33,32.22,56.23,54.54
					c13.9,22.32,20.85,50.33,20.85,84.02c0,46.33-10.74,84.1-32.22,113.3c-21.48,29.21-52.16,53.49-92.03,72.86L3278.25,3865.03z
					 M3025.97,3429.96c0-15.72-3.23-29.2-9.69-40.43c-6.46-11.23-17.55-20.07-33.27-26.53c-10.95-4.49-23.73-7.23-38.33-8.21
					c-14.6-0.98-31.59-1.47-50.96-1.47h-58.54v168.89h49.7c25.83,0,47.45-1.26,64.86-3.79c17.41-2.53,32.01-8.28,43.8-17.27
					c11.23-8.7,19.44-18.32,24.64-28.85C3023.37,3461.76,3025.97,3447.65,3025.97,3429.96z"/>
				<path class="st3" d="M3941.59,3552.1c0,58.4-13.34,110.7-40.01,156.89c-26.68,46.19-60.37,81.64-101.08,106.34
					c-30.61,18.53-64.16,31.45-100.66,38.75c-36.5,7.3-79.75,10.95-129.72,10.95h-221.11v-627.12h227.43
					c51.1,0,95.18,4.28,132.25,12.85c37.06,8.57,68.23,20.71,93.5,36.43c43.24,26.4,77.29,61.98,102.13,106.77
					C3929.17,3438.74,3941.59,3491.45,3941.59,3552.1z M3774.39,3550.84c0-41.27-7.52-76.58-22.53-105.92
					c-15.02-29.34-38.82-52.29-71.39-68.86c-16.57-8.14-33.48-13.69-50.75-16.64c-17.27-2.95-43.31-4.42-78.13-4.42h-40.85v392.53
					h40.85c38.46,0,66.68-1.75,84.65-5.27c17.96-3.51,35.52-9.9,52.65-19.16c29.48-16.85,51.1-39.38,64.86-67.6
					C3767.5,3627.28,3774.39,3592.39,3774.39,3550.84z"/>
				<path class="st3" d="M4644.52,3865.03H4477.5l-43.68-126.77h-232.07l-43.69,126.77h-162.98l231.64-627.12h186.16
					L4644.52,3865.03z M4394.94,3623.28l-77.15-224.67l-77.17,224.67H4394.94z"/>
			</g>
		</g>
		<g>
			<path class="st4" d="M3044.72,4730.24h-453.6v-627.12h453.6v121.3h-292.71v108.24h271.65v121.3h-271.65v154.99h292.71V4730.24z"
				/>
			<path class="st4" d="M3463.78,4742.45c-46.61,0-89.64-6.88-129.09-20.64c-39.45-13.75-73.36-34.25-101.71-61.49
				c-28.36-27.23-50.33-61.21-65.91-101.92c-15.58-40.71-23.38-87.74-23.38-141.09c0-49.7,7.44-94.76,22.32-135.2
				c14.88-40.43,36.5-75.11,64.86-104.03c27.23-27.8,61-49.28,101.29-64.44c40.29-15.16,84.3-22.74,132.04-22.74
				c26.39,0,50.19,1.47,71.39,4.42c21.2,2.95,40.78,6.81,58.75,11.58c18.81,5.34,35.87,11.31,51.17,17.9
				c15.3,6.6,28.7,12.71,40.22,18.32v152.04h-18.53c-7.86-6.7-17.76-14.66-29.69-23.88c-11.94-9.22-25.48-18.3-40.64-27.25
				c-15.45-8.94-32.15-16.48-50.12-22.62c-17.97-6.15-37.21-9.22-57.7-9.22c-22.74,0-44.37,3.57-64.86,10.72
				c-20.5,7.15-39.45,18.99-56.86,35.52c-16.57,15.97-29.97,37.13-40.22,63.46c-10.25,26.33-15.37,58.28-15.37,95.83
				c0,39.23,5.54,72.01,16.64,98.35c11.09,26.34,25.06,47.08,41.91,62.2c17.12,15.41,36.22,26.42,57.28,33
				c21.06,6.59,41.83,9.88,62.33,9.88c19.65,0,39.1-2.93,58.33-8.8c19.23-5.86,36.99-13.83,53.28-23.89
				c13.75-8.09,26.53-16.75,38.33-25.97c11.79-9.22,21.48-17.18,29.06-23.89h16.85v149.94c-15.73,7.02-30.75,13.62-45.07,19.8
				c-14.32,6.18-29.34,11.52-45.07,16c-20.5,5.9-39.74,10.38-57.7,13.48C3519.93,4740.91,3495.22,4742.45,3463.78,4742.45z"/>
			<path class="st4" d="M4414.36,4416.89c0,99.96-28.64,179.35-85.92,238.17c-57.28,58.83-136.46,88.24-237.54,88.24
				c-100.8,0-179.84-29.41-237.12-88.24c-57.28-58.82-85.92-138.21-85.92-238.17c0-100.8,28.64-180.47,85.92-239.01
				c57.28-58.54,136.31-87.81,237.12-87.81c100.51,0,179.56,29.27,237.12,87.81C4385.57,4236.42,4414.36,4316.09,4414.36,4416.89z
				 M4199.98,4575.67c15.72-19.09,27.38-41.62,34.96-67.6c7.58-25.97,11.37-56.5,11.37-91.6c0-37.62-4.36-69.63-13.06-96.03
				c-8.71-26.39-20.08-47.73-34.11-64.02c-14.32-16.85-30.82-29.06-49.49-36.64c-18.68-7.58-38.11-11.37-58.33-11.37
				c-20.5,0-39.8,3.65-57.91,10.95c-18.11,7.31-34.75,19.38-49.91,36.22c-14.04,15.73-25.48,37.42-34.33,65.07
				c-8.85,27.66-13.27,59.74-13.27,96.24c0,37.35,4.28,69.14,12.84,95.39c8.56,26.26,19.86,47.66,33.91,64.23
				c14.04,16.57,30.46,28.79,49.28,36.64c18.81,7.86,38.6,11.79,59.38,11.79c20.78,0,40.57-4,59.39-12
				C4169.51,4604.94,4185.94,4592.52,4199.98,4575.67z"/>
		</g>
		<g>
			<path class="st3" d="M1399.81,5396.66c0,61.77-26.19,111.97-78.55,150.57c-52.37,38.61-123.47,57.91-213.32,57.91
				c-51.95,0-97.22-4.57-135.83-13.69c-38.61-9.12-74.76-20.7-108.45-34.75v-150.36h17.69c33.41,26.68,70.82,47.17,112.24,61.49
				c41.41,14.32,81.21,21.48,119.4,21.48c9.82,0,22.74-0.84,38.75-2.53c16-1.69,29.06-4.49,39.17-8.42
				c12.35-5.05,22.53-11.37,30.53-18.95c8-7.58,12-18.81,12-33.69c0-13.75-5.83-25.62-17.48-35.59
				c-11.66-9.96-28.71-17.62-51.17-22.95c-23.59-5.61-48.51-10.88-74.76-15.79c-26.26-4.91-50.89-11.16-73.91-18.74
				c-52.79-17.12-90.76-40.36-113.93-69.7c-23.16-29.34-34.75-65.77-34.75-109.29c0-58.4,26.18-106.06,78.55-142.99
				c52.36-36.92,119.68-55.38,201.95-55.38c41.27,0,82.05,4,122.35,12c40.29,8,75.18,18.04,104.66,30.11v144.46h-17.27
				c-25.27-20.22-56.23-37.13-92.87-50.75c-36.64-13.62-74.06-20.43-112.24-20.43c-13.48,0-26.89,0.91-40.22,2.74
				c-13.34,1.83-26.19,5.26-38.54,10.32c-10.95,4.21-20.36,10.6-28.22,19.16c-7.86,8.57-11.79,18.32-11.79,29.27
				c0,16.57,6.32,29.27,18.95,38.12c12.63,8.84,36.5,16.92,71.6,24.22c23.02,4.78,45.13,9.41,66.34,13.9
				c21.2,4.49,44.01,10.67,68.44,18.53c48.01,15.73,83.46,37.13,106.34,64.23C1388.37,5318.25,1399.81,5353.42,1399.81,5396.66z"/>
			<path class="st3" d="M2062.31,4966.64l-231.22,384.53v242.59h-161.73v-235.01l-235.01-392.11h184.13l135.2,241.91l130.72-241.91
				H2062.31z"/>
			<path class="st3" d="M2648.16,5396.66c0,61.77-26.19,111.97-78.55,150.57c-52.37,38.61-123.47,57.91-213.32,57.91
				c-51.95,0-97.22-4.57-135.83-13.69c-38.61-9.12-74.76-20.7-108.45-34.75v-150.36h17.69c33.41,26.68,70.82,47.17,112.24,61.49
				c41.41,14.32,81.21,21.48,119.4,21.48c9.82,0,22.74-0.84,38.75-2.53c16-1.69,29.06-4.49,39.17-8.42
				c12.35-5.05,22.53-11.37,30.53-18.95c8-7.58,12-18.81,12-33.69c0-13.75-5.83-25.62-17.48-35.59
				c-11.66-9.96-28.71-17.62-51.17-22.95c-23.58-5.61-48.51-10.88-74.76-15.79c-26.26-4.91-50.89-11.16-73.91-18.74
				c-52.79-17.12-90.76-40.36-113.93-69.7c-23.16-29.34-34.75-65.77-34.75-109.29c0-58.4,26.18-106.06,78.55-142.99
				c52.36-36.92,119.68-55.38,201.95-55.38c41.27,0,82.05,4,122.35,12c40.29,8,75.18,18.04,104.66,30.11v144.46h-17.27
				c-25.27-20.22-56.23-37.13-92.87-50.75c-36.64-13.62-74.06-20.43-112.24-20.43c-13.48,0-26.89,0.91-40.22,2.74
				c-13.34,1.83-26.19,5.26-38.54,10.32c-10.95,4.21-20.36,10.6-28.22,19.16c-7.86,8.57-11.79,18.32-11.79,29.27
				c0,16.57,6.32,29.27,18.95,38.12c12.64,8.84,36.5,16.92,71.6,24.22c23.02,4.78,45.13,9.41,66.34,13.9
				c21.2,4.49,44.01,10.67,68.44,18.53c48.01,15.73,83.46,37.13,106.34,64.23C2636.71,5318.25,2648.16,5353.42,2648.16,5396.66z"/>
			<path class="st3" d="M3249.59,5087.94h-195.84v505.82h-161.73v-505.82h-195.84v-121.3h553.41V5087.94z"/>
			<path class="st3" d="M3800.47,5593.76h-453.6v-627.12h453.6v121.3h-292.71v108.24h271.65v121.3h-271.65v154.99h292.71V5593.76z"
				/>
			<path class="st3" d="M4593.53,5593.76h-160.89v-419.91l-116.24,272.5H4204.8l-116.24-272.5v419.91h-152.46v-627.12h187.84
				l141.09,314.61l140.67-314.61h187.84V5593.76z"/>
		</g>
	</g>
</g>
</svg>
